<svg width="66" height="66" xmlns="http://www.w3.org/2000/svg" xmlns:xlink="http://www.w3.org/1999/xlink" overflow="hidden"><defs><clipPath id="clip0"><rect x="582" y="327" width="66" height="66"/></clipPath><clipPath id="clip1"><rect x="582" y="327" width="65" height="65"/></clipPath><clipPath id="clip2"><rect x="582" y="327" width="65" height="65"/></clipPath><clipPath id="clip3"><rect x="582" y="327" width="77" height="65"/></clipPath></defs><g clip-path="url(#clip0)" transform="translate(-582 -327)"><g clip-path="url(#clip1)"><g clip-path="url(#clip2)"><g clip-path="url(#clip3)"><path d="M1154.75 272.099C1155.41 272.106 1155.94 271.579 1155.95 270.922 1155.95 270.895 1155.95 270.868 1155.95 270.842 1155.95 269.949 1155.41 269.523 1154.31 269.523L1152.52 269.523 1152.52 274.194 1153.19 274.194 1153.19 272.158 1154.02 272.158 1154.04 272.183 1155.32 274.194 1156.03 274.194 1154.66 272.112ZM1153.97 271.632 1153.19 271.632 1153.19 270.053 1154.18 270.053C1154.69 270.053 1155.27 270.136 1155.27 270.803 1155.27 271.57 1154.68 271.632 1153.97 271.632" fill="#0A66C2" transform="matrix(1 0 0 1.00384 -500.148 114.659)"/><path d="M950.541 111.569 941.026 111.569 941.026 96.6668C941.026 93.1134 940.962 88.539 936.077 88.539 931.121 88.539 930.362 92.4106 930.362 96.4081L930.362 111.568 920.847 111.568 920.847 80.9236 929.982 80.9236 929.982 85.1114 930.11 85.1114C931.972 81.9266 935.436 80.0245 939.123 80.1613 948.767 80.1613 950.545 86.505 950.545 94.7578ZM910.11 76.7348C907.061 76.7353 904.588 74.2635 904.587 71.2138 904.587 68.1641 907.059 65.6914 910.108 65.6908 913.158 65.6903 915.631 68.1621 915.631 71.2118 915.632 74.2615 913.16 76.7342 910.11 76.7348M914.868 111.569 905.343 111.569 905.343 80.9236 914.868 80.9236ZM955.285 56.8543 900.561 56.8543C897.975 56.8251 895.854 58.8968 895.822 61.4832L895.822 116.434C895.853 119.022 897.973 121.096 900.561 121.068L955.285 121.068C957.878 121.101 960.007 119.027 960.043 116.434L960.043 61.4792C960.006 58.8877 957.877 56.8161 955.285 56.8503" fill="#0A66C2" transform="matrix(1 0 0 1.00384 -313.445 269.931)"/><path d="M1146.35 261.895C1143.93 261.918 1141.99 263.898 1142.01 266.316 1142.03 268.734 1144.01 270.676 1146.43 270.653 1148.85 270.63 1150.79 268.65 1150.77 266.232 1150.75 263.846 1148.82 261.918 1146.43 261.895L1146.35 261.895M1146.35 270.152C1144.23 270.187 1142.48 268.497 1142.44 266.376 1142.41 264.256 1144.1 262.508 1146.22 262.473 1148.34 262.438 1150.09 264.128 1150.12 266.248 1150.12 266.27 1150.12 266.291 1150.12 266.313 1150.17 268.387 1148.52 270.105 1146.45 270.15L1146.35 270.15" fill="#0A66C2" transform="matrix(1 0 0 1.00384 -492.442 120.228)"/></g></g></g></g></svg>