<svg width="132" height="147" xmlns="http://www.w3.org/2000/svg" xmlns:xlink="http://www.w3.org/1999/xlink" overflow="hidden"><defs><clipPath id="clip0"><rect x="509" y="281" width="132" height="147"/></clipPath><clipPath id="clip1"><rect x="509" y="281" width="131" height="146"/></clipPath><clipPath id="clip2"><rect x="509" y="281" width="131" height="146"/></clipPath><clipPath id="clip3"><rect x="509" y="281" width="501" height="146"/></clipPath></defs><g clip-path="url(#clip0)" transform="translate(-509 -281)"><g clip-path="url(#clip1)"><g clip-path="url(#clip2)"><g clip-path="url(#clip3)"><path d="M95.551 52.591C104.958 59.312 116.482 63.2665 128.928 63.2665L128.928 39.328C126.573 39.3285 124.224 39.083 121.919 38.595L121.919 57.438C109.474 57.438 97.951 53.4835 88.5415 46.763L88.5415 95.6145C88.5415 120.052 68.7205 139.862 44.2715 139.862 35.149 139.862 26.67 137.105 19.6265 132.378 27.6655 140.594 38.8765 145.69 51.2795 145.69 75.73 145.69 95.552 125.881 95.552 101.441L95.552 52.591 95.551 52.591ZM104.198 28.44C99.3905 23.1905 96.234 16.4065 95.551 8.9065L95.551 5.8275 88.9085 5.8275C90.5805 15.36 96.2835 23.504 104.198 28.44L104.198 28.44ZM35.0905 113.625C32.4045 110.105 30.953 105.799 30.9595 101.371 30.9595 90.1945 40.0255 81.132 51.2105 81.132 53.295 81.1315 55.367 81.4505 57.3535 82.0805L57.3535 57.607C55.032 57.289 52.689 57.154 50.347 57.2035L50.347 76.2525C48.359 75.6225 46.286 75.3025 44.201 75.3045 33.016 75.3045 23.9505 84.366 23.9505 95.5445 23.9505 103.449 28.482 110.291 35.0905 113.625Z" fill="#FF004F" transform="matrix(1.00153 0 0 1 509 281.155)"/><path d="M88.5415 46.7625C97.951 53.483 109.474 57.4375 121.919 57.4375L121.919 38.5945C114.972 37.1155 108.822 33.487 104.198 28.44 96.283 23.5035 90.5805 15.3595 88.9085 5.8275L71.4605 5.8275 71.4605 101.44C71.421 112.587 62.3705 121.613 51.2095 121.613 44.6325 121.613 38.7895 118.479 35.089 113.625 28.481 110.291 23.9495 103.448 23.9495 95.545 23.9495 84.3675 33.015 75.305 44.2 75.305 46.343 75.305 48.4085 75.6385 50.346 76.253L50.346 57.204C26.3265 57.7 7.009 77.316 7.009 101.441 7.009 113.484 11.8195 124.401 19.627 132.378 26.6705 137.105 35.1495 139.863 44.272 139.863 68.7215 139.863 88.542 120.052 88.542 95.6145L88.542 46.7625 88.5415 46.7625Z" transform="matrix(1.00153 0 0 1 509 281.155)"/><path d="M121.919 38.5945 121.919 33.4995C115.655 33.509 109.513 31.7555 104.198 28.4395 108.903 33.588 115.099 37.138 121.919 38.5945ZM88.9085 5.8275C88.749 4.9165 88.6265 3.9995 88.5415 3.079L88.5415 0 64.4505 0 64.4505 95.614C64.412 106.759 55.362 115.785 44.2 115.785 40.923 115.785 37.829 115.007 35.089 113.626 38.7895 118.479 44.6325 121.612 51.2095 121.612 62.3695 121.612 71.4215 112.588 71.4605 101.441L71.4605 5.8275 88.9085 5.8275ZM50.347 57.204 50.347 51.78C48.334 51.505 46.3045 51.367 44.2725 51.368 19.821 51.3675 0 71.178 0 95.614 0 110.934 7.79 124.436 19.6275 132.378 11.82 124.401 7.0095 113.483 7.0095 101.44 7.0095 77.316 26.3265 57.7 50.347 57.204Z" fill="#00F2EA" transform="matrix(1.00153 0 0 1 509 281.155)"/><path d="M401.063 119.829C418.557 119.829 432.74 105.761 432.74 88.4095 432.74 71.058 418.557 56.9875 401.063 56.9875L396.29 56.9875C413.785 56.9875 427.968 71.0575 427.968 88.4095 427.968 105.761 413.785 119.829 396.29 119.829L401.063 119.829Z" fill="#FF004F" transform="matrix(1.00153 0 0 1 509 281.155)"/><path d="M395.858 56.9875 391.086 56.9875C373.592 56.9875 359.407 71.0575 359.407 88.4095 359.407 105.761 373.592 119.829 391.086 119.829L395.858 119.829C378.362 119.829 364.179 105.761 364.179 88.4095 364.178 71.058 378.362 56.9875 395.858 56.9875Z" fill="#00F2EA" transform="matrix(1.00153 0 0 1 509 281.155)"/><path d="M155.031 42.786 155.031 58.7125 173.686 58.7125 173.686 119.399 192.35 119.399 192.35 59.1425 207.536 59.1425 212.742 42.7865 155.031 42.7865ZM307.772 42.786 307.772 58.7125 326.427 58.7125 326.427 119.399 345.091 119.399 345.091 59.1425 360.276 59.1425 365.483 42.7865 307.772 42.7865ZM216.217 51.824C216.217 46.8335 220.29 42.786 225.322 42.786 230.359 42.786 234.436 46.8335 234.436 51.824 234.436 56.815 230.361 60.8625 225.322 60.8625 220.29 60.86 216.217 56.815 216.217 51.824ZM216.217 67.3205 234.436 67.3205 234.436 119.399 216.217 119.399 216.217 67.3205ZM242.248 42.786 242.248 119.399 260.474 119.399 260.474 99.602 266.116 94.4325 283.904 119.829 303.429 119.829 277.826 82.814 300.824 60.43 278.695 60.43 260.474 78.5065 260.474 42.786 242.248 42.786ZM438.811 42.786 438.811 119.399 457.04 119.399 457.04 99.602 462.679 94.4325 480.473 119.829 500 119.829 474.397 82.814 497.394 60.43 475.266 60.43 457.04 78.5065 457.04 42.786 438.811 42.786Z" transform="matrix(1.00153 0 0 1 509 281.155)"/><path d="M396.289 119.829C413.783 119.829 427.968 105.761 427.968 88.4095 427.968 71.058 413.783 56.9875 396.289 56.9875L395.857 56.9875C378.362 56.9875 364.179 71.0575 364.179 88.4095 364.179 105.761 378.362 119.829 395.857 119.829L396.289 119.829ZM380.668 88.4095C380.668 79.969 387.568 73.132 396.077 73.132 404.579 73.132 411.478 79.969 411.478 88.4095 411.478 96.85 404.579 103.691 396.077 103.691 387.568 103.689 380.668 96.85 380.668 88.4095Z" transform="matrix(1.00153 0 0 1 509 281.155)"/></g></g></g></g></svg>