<svg width="158" height="112" xmlns="http://www.w3.org/2000/svg" xmlns:xlink="http://www.w3.org/1999/xlink" overflow="hidden"><defs><clipPath id="clip0"><rect x="395" y="304" width="158" height="112"/></clipPath><clipPath id="clip1"><rect x="395" y="305" width="157" height="110"/></clipPath><clipPath id="clip2"><rect x="395" y="305" width="157" height="110"/></clipPath><clipPath id="clip3"><rect x="393" y="305" width="492" height="110"/></clipPath></defs><g clip-path="url(#clip0)" transform="translate(-395 -304)"><g clip-path="url(#clip1)"><g clip-path="url(#clip2)"><g clip-path="url(#clip3)"><path d="M154.057 17.4724C152.259 10.783 146.968 5.49132 140.278 3.69416 128.197 0.399369 79.5742 0.399369 79.5742 0.399369 79.5742 0.399369 30.9511 0.499211 18.8702 3.794 12.1807 5.59116 6.88911 10.8828 5.09195 17.5722 1.897 29.6531 1.897 54.9132 1.897 54.9132 1.897 54.9132 1.897 80.1733 5.19179 92.354 6.98895 99.0435 12.2806 104.335 18.97 106.132 31.0509 109.427 79.6741 109.427 79.6741 109.427 79.6741 109.427 128.297 109.427 140.378 106.132 147.068 104.335 152.359 99.0435 154.156 92.354 157.451 80.2731 157.451 54.9132 157.451 54.9132 157.451 54.9132 157.351 29.6531 154.057 17.4724Z" fill="#FF0000" transform="matrix(1 0 0 1.00158 393.752 305)"/><path d="M64.0987 78.2763 104.435 54.9132 64.0987 31.5501Z" fill="#FFFFFF" transform="matrix(1 0 0 1.00158 393.752 305)"/><path d="M227.54 99.5427C224.445 97.446 222.249 94.251 220.951 89.858 219.653 85.4649 219.054 79.6741 219.054 72.3856L219.054 62.5012C219.054 55.2127 219.753 49.2222 221.25 44.8292 222.748 40.3363 225.044 37.1413 228.239 35.1445 231.434 33.1476 235.528 32.0493 240.62 32.0493 245.612 32.0493 249.705 33.0478 252.701 35.1445 255.696 37.2411 257.992 40.4361 259.39 44.8292 260.788 49.2222 261.487 55.1129 261.487 62.4014L261.487 72.2858C261.487 79.5742 260.788 85.3651 259.39 89.7581 257.992 94.1512 255.796 97.3462 252.701 99.4428 249.606 101.44 245.412 102.538 240.22 102.538 234.829 102.638 230.635 101.54 227.54 99.5427ZM244.813 88.8596C245.712 86.663 246.111 82.9689 246.111 77.9768L246.111 56.7104C246.111 51.8181 245.712 48.2238 244.813 46.0273 243.915 43.7309 242.417 42.6326 240.32 42.6326 238.224 42.6326 236.826 43.7309 235.927 46.0273 235.029 48.3236 234.629 51.8181 234.629 56.7104L234.629 77.9768C234.629 82.9689 235.029 86.663 235.827 88.8596 236.626 91.0561 238.124 92.1544 240.32 92.1544 242.417 92.1544 243.915 91.0561 244.813 88.8596Z" fill="#282828" transform="matrix(1 0 0 1.00158 393.752 305)"/><path d="M463.667 72.5853 463.667 76.0798C463.667 80.4728 463.767 83.7676 464.067 85.9641 464.366 88.1607 464.865 89.7581 465.664 90.7566 466.463 91.755 467.761 92.2542 469.458 92.2542 471.754 92.2542 473.352 91.3556 474.151 89.5585 475.049 87.7613 475.449 84.766 475.548 80.6725L488.827 81.4712C488.927 82.0703 488.927 82.869 488.927 83.8675 488.927 90.1575 487.23 94.8501 483.736 97.9452 480.241 101.04 475.449 102.638 469.159 102.638 461.571 102.638 456.279 100.242 453.284 95.549 450.288 90.8564 448.691 83.4681 448.691 73.5837L448.691 61.5028C448.691 51.3189 450.288 43.8307 453.383 39.1381 456.578 34.4456 461.97 32.0493 469.558 32.0493 474.85 32.0493 478.843 33.0478 481.639 34.9448 484.434 36.8418 486.431 39.837 487.629 43.9306 488.827 48.0241 489.327 53.6153 489.327 60.8039L489.327 72.4854 463.667 72.4854ZM465.664 43.8307C464.865 44.8292 464.366 46.3268 464.067 48.5233 463.767 50.7198 463.667 54.0146 463.667 58.5075L463.667 63.3998 474.85 63.3998 474.85 58.5075C474.85 54.1145 474.75 50.8197 474.45 48.5233 474.151 46.2269 473.651 44.6295 472.853 43.7309 472.054 42.8323 470.856 42.3331 469.258 42.3331 467.561 42.4329 466.363 42.9321 465.664 43.8307Z" fill="#282828" transform="matrix(1 0 0 1.00158 393.752 305)"/><path d="M190.199 71.2873 172.727 8.18706 188.003 8.18706 194.093 36.7419C195.691 43.8307 196.789 49.8213 197.588 54.7135L197.987 54.7135C198.486 51.1192 199.684 45.2285 201.482 36.8418L207.772 8.18706 223.047 8.18706 205.375 71.1875 205.375 101.44 190.299 101.44 190.299 71.2873Z" fill="#282828" transform="matrix(1 0 0 1.00158 393.752 305)"/><path d="M311.008 33.3473 311.008 101.54 299.027 101.54 297.729 93.1528 297.43 93.1528C294.135 99.4428 289.243 102.638 282.753 102.638 278.26 102.638 274.866 101.14 272.769 98.1449 270.572 95.1496 269.574 90.5569 269.574 84.2668L269.574 33.3473 284.95 33.3473 284.95 83.3682C284.95 86.3635 285.249 88.56 285.948 89.858 286.647 91.1559 287.745 91.755 289.243 91.755 290.541 91.755 291.839 91.3556 293.037 90.5569 294.235 89.7581 295.134 88.6599 295.733 87.4618L295.733 33.3473 311.008 33.3473Z" fill="#282828" transform="matrix(1 0 0 1.00158 393.752 305)"/><path d="M389.784 33.3473 389.784 101.54 377.803 101.54 376.505 93.1528 376.205 93.1528C372.911 99.4428 368.018 102.638 361.529 102.638 357.036 102.638 353.641 101.14 351.544 98.1449 349.348 95.1496 348.349 90.5569 348.349 84.2668L348.349 33.3473 363.725 33.3473 363.725 83.3682C363.725 86.3635 364.025 88.56 364.724 89.858 365.422 91.1559 366.521 91.755 368.018 91.755 369.316 91.755 370.614 91.3556 371.812 90.5569 373.01 89.7581 373.909 88.6599 374.508 87.4618L374.508 33.3473 389.784 33.3473Z" fill="#282828" transform="matrix(1 0 0 1.00158 393.752 305)"/><path d="M352.743 20.5675 337.467 20.5675 337.467 101.54 322.49 101.54 322.49 20.5675 307.214 20.5675 307.214 8.18706 352.643 8.18706 352.643 20.5675Z" fill="#282828" transform="matrix(1 0 0 1.00158 393.752 305)"/><path d="M440.504 44.2301C439.605 39.9369 438.108 36.8418 436.011 34.8449 433.914 32.9479 431.119 31.9495 427.424 31.9495 424.629 31.9495 421.933 32.7482 419.537 34.3457 417.041 35.9432 415.244 38.0399 413.846 40.6358L413.746 40.6358 413.746 4.69258 398.969 4.69258 398.969 101.44 411.649 101.44 413.247 94.9499 413.546 94.9499C414.745 97.2463 416.542 99.0435 418.838 100.441 421.234 101.739 423.83 102.438 426.726 102.438 431.917 102.438 435.711 100.042 438.207 95.2495 440.604 90.457 441.902 82.9689 441.902 72.8848L441.902 62.1019C441.902 54.5138 441.402 48.5233 440.504 44.2301ZM426.426 72.0861C426.426 77.0782 426.226 80.972 425.827 83.7676 425.428 86.5632 424.729 88.56 423.73 89.7581 422.732 90.9563 421.434 91.5553 419.836 91.5553 418.539 91.5553 417.44 91.2558 416.342 90.6567 415.244 90.0577 414.445 89.1591 413.746 87.961L413.746 49.2222C414.245 47.3252 415.144 45.8276 416.442 44.6295 417.74 43.4314 419.038 42.8323 420.535 42.8323 422.133 42.8323 423.331 43.4314 424.13 44.6295 425.028 45.8276 425.527 47.9243 425.927 50.8197 426.226 53.7151 426.426 57.8086 426.426 63.2001L426.426 72.0861Z" fill="#282828" transform="matrix(1 0 0 1.00158 393.752 305)"/></g></g></g></g></svg>